<svg xmlns="http://www.w3.org/2000/svg" width="152.853" height="95.087" viewBox="0 0 152.853 95.087"><path d="M263.974,523.626c-.492-.819-1.086-1.46-2.144-1.291-.985-.718-1.936-1.116-3.014-.088-4.734,4.513-10.031,4.626-15.709,2.153-.807-.351-2.211-1.646-2.562.76l-.505,1c-4.908,5.052-10.055,9.462-17.635,7.345a5.984,5.984,0,0,0-.942-.208c-3.351-.379-4.433-3.946-6.977-5.458-1.119-2.312-2.413-3.576-4.676-1.1a7.5,7.5,0,0,1-2.354,1.329c-6.755,3.261-13.33,2.547-19.772-.972-2.871-3.31-6.254-6.25-7.453-10.774-.467-1.758-.878-3.532-1.313-5.3.086-.986.675-2.448-.6-2.685-2.1-.389-4.065-1.524-6.277-1.3-8.688-3.861-13.8-12.983-11.08-22.948,2.8-10.248,10.787-16.332,21.134-16.1,3.145.07,4.366-.687,5.228-4.006,4.958-19.093,23.7-29.488,42.677-23.165,6.908,2.3,12.952,6.584,16.632,13.336,1.269,2.329,2.12,1.993,3.847.861,8.521-5.586,17.3-6.308,26.207-1,5.826,3.473,8.854,9.092,10.789,15.468.07,2.131.2,4.264.193,6.4-.007,1.6.461,2.146,1.913,1.243,3.392-.105,6.834-.672,10.155.277a17.09,17.09,0,0,1,11.235,9.879,48.805,48.805,0,0,1,1.949,5.7,4.309,4.309,0,0,1-.032,2.439,1.359,1.359,0,0,0-.039.179c-1.3,9.049-7.752,14.779-16.681,14.852-1.909.016-4.109-.7-4.457,2.626a15.592,15.592,0,0,1-14.81,13.775c-3.592.155-6.856-1.2-10.288-1.748l.028.034c-.215-.765-.843-.683-1.411-.723l.057.026C265.243,523.49,264.546,523.666,263.974,523.626Z" transform="translate(-160.226 -438.959)" fill="#fff" opacity="0.63"/></svg>