<svg id="Group_832" data-name="Group 832" xmlns="http://www.w3.org/2000/svg" width="295.585" height="56.925" viewBox="0 0 295.585 56.925">
  <path id="Path_3" data-name="Path 3" d="M-134.341,579.209v-9.742h-23.29V540.749a6.112,6.112,0,0,0-6.113-6.113,6.112,6.112,0,0,0-6.113,6.113v38.46Z" transform="translate(169.857 -534.636)" fill="#fff" fill-rule="evenodd"/>
  <path id="Path_4" data-name="Path 4" d="M-152.984,556.045c0,9.745,9.233,16.111,18.339,16.111s18.337-6.366,18.337-16.111-9.233-16.175-18.337-16.175-18.339,6.432-18.339,16.175Zm10.7,0c0-4.01,3.693-6.686,7.641-6.686,3.885,0,7.641,2.676,7.641,6.686,0,3.949-3.822,6.622-7.641,6.622-3.949,0-7.641-2.737-7.641-6.622Z" transform="translate(192.594 -527.583)" fill="#fff" fill-rule="evenodd"/>
  <path id="Path_5" data-name="Path 5" d="M-135.624,539.984v23.623h.063c0,8.787,8.151,15.6,18.146,15.6,10.188,0,18.466-7.2,18.466-16.175,0-8.787-8.022-16.111-18.273-16.111-3.822,0-6.305,1.848-7.7,2.357v-9.3a5.349,5.349,0,0,0-5.35-5.348,5.348,5.348,0,0,0-5.348,5.348Zm10.7,23.241c0-3.946,3.373-6.939,7.7-6.939,4.265,0,7.578,3.12,7.578,6.813,0,3.822-3.376,6.622-7.641,6.622-4.2,0-7.641-2.737-7.641-6.5Z" transform="translate(215.987 -534.636)" fill="#fff" fill-rule="evenodd"/>
  <path id="Path_6" data-name="Path 6" d="M-100.224,539.87c-9.106,0-18.339,6.432-18.339,16.175s9.233,16.111,18.339,16.111,18.337-6.366,18.337-16.111-9.233-16.175-18.337-16.175Zm-7.641,16.175c0-4.01,3.693-6.686,7.641-6.686,3.883,0,7.641,2.676,7.641,6.686,0,3.949-3.822,6.622-7.641,6.622-3.949,0-7.641-2.737-7.641-6.622Z" transform="translate(238.977 -527.583)" fill="#fff" fill-rule="evenodd"/>
  <path id="Path_7" data-name="Path 7" d="M-78.644,537.3l-22.614,40.518H-87.25l12.292-22.1,12.35,22.1H-48.6l-22.654-40.493a4.954,4.954,0,0,0-3.707-1.662,4.954,4.954,0,0,0-3.686,1.636Z" transform="translate(262.296 -533.248)" fill="#fff" fill-rule="evenodd"/>
  <path id="Path_8" data-name="Path 8" d="M-87.363,549.575l-5.77,10.369h14.5l-5.784-10.35a1.988,1.988,0,0,0-1.484-.662,1.969,1.969,0,0,0-1.46.643Z" transform="translate(273.245 -515.372)" fill="#fff" fill-rule="evenodd"/>
  <path id="Path_9" data-name="Path 9" d="M-77.135,555.524l-.063,28.91h10.7V569.788c1.4.573,3.883,2.42,7.766,2.42,10.254,0,18.212-7.324,18.212-16.175,0-8.914-8.277-16.109-18.466-16.109-9.932,0-18.146,6.749-18.146,15.6Zm10.634.446c0-3.629,3.439-6.622,7.7-6.622,4.139,0,7.578,2.993,7.578,6.559s-3.312,6.876-7.578,6.876c-4.331,0-7.7-3.181-7.7-6.812Z" transform="translate(294.718 -527.509)" fill="#fff" fill-rule="evenodd"/>
  <path id="Path_10" data-name="Path 10" d="M-59.506,555.524l-.061,28.91h10.7V569.788c1.4.573,3.885,2.42,7.768,2.42,10.254,0,18.212-7.324,18.212-16.175,0-8.914-8.277-16.109-18.466-16.109-9.932,0-18.149,6.749-18.149,15.6Zm25.919.383c0,3.566-3.315,6.876-7.58,6.876-4.329,0-7.7-3.181-7.7-6.812s3.439-6.622,7.7-6.622c4.141,0,7.58,2.993,7.58,6.559Z" transform="translate(318.476 -527.509)" fill="#fff" fill-rule="evenodd"/>
</svg>
