<svg id="Group_805" data-name="Group 805" xmlns="http://www.w3.org/2000/svg" xmlns:xlink="http://www.w3.org/1999/xlink" width="204.895" height="317.067" viewBox="0 0 204.895 317.067">
  <defs>
    <linearGradient id="linear-gradient" x1="0.509" y1="2.161" x2="0.489" y2="-1.651" gradientUnits="objectBoundingBox">
      <stop offset="0.289" stop-color="#ad001a"/>
      <stop offset="0.348" stop-color="#a30119"/>
      <stop offset="0.448" stop-color="#880418"/>
      <stop offset="0.576" stop-color="#5d0a16"/>
      <stop offset="0.584" stop-color="#5b0b16"/>
    </linearGradient>
    <linearGradient id="linear-gradient-2" x1="0.501" y1="1.979" x2="0.498" y2="-3.197" gradientUnits="objectBoundingBox">
      <stop offset="0.295" stop-color="#fff"/>
      <stop offset="0.314" stop-color="#f5f5f5"/>
      <stop offset="0.344" stop-color="#dadada"/>
      <stop offset="0.383" stop-color="#afafb0"/>
      <stop offset="0.43" stop-color="#737474"/>
      <stop offset="0.482" stop-color="#282829"/>
      <stop offset="0.505" stop-color="#040506"/>
    </linearGradient>
  </defs>
  <path id="Path_1007" data-name="Path 1007" d="M314.358,751.794l-2.59,16.5a10.7,10.7,0,0,1-3.887,6.688c-4.879,3.912-13.765,11.491-15.723,16.264-2.733,6.66.341,15.37,15.881,15.2,12.392-.136,28.582-7.546,34.636-10.544a4.9,4.9,0,0,0,2.7-3.874l1.085-10.173a5.309,5.309,0,0,0,2.9,1.537s-2.22-5.806-1.878-7.173a23.273,23.273,0,0,0,1.8,2.9.49.49,0,0,0,.868-.372c-.366-2.632-.622-9.341,3.821-18.749Z" transform="translate(-251.117 -489.376)" fill="#0a243a"/>
  <path id="Path_1008" data-name="Path 1008" d="M307.569,821.319c-5.73-.735-11.045-3.049-13.967-8.336a12.5,12.5,0,0,1-1.3-3.5c-.048.1-.1.21-.139.311-2.733,6.66.341,15.37,15.881,15.2,6.836-.075,14.826-2.365,21.635-4.905A65,65,0,0,1,307.569,821.319Z" transform="translate(-251.117 -507.929)" fill="#071c26"/>
  <path id="Path_1009" data-name="Path 1009" d="M357.654,763.321l-5.67-1.173c-.014.166-.028.332-.055.5-.551,3.458-1.224,7.142-2.134,10.826a4.275,4.275,0,0,1-.262,2.2c-2.736,6.743-3.853,13.947-6.864,20.606a4.67,4.67,0,0,1-2.429,2.309,22.511,22.511,0,0,0-3.21,1.914,41.487,41.487,0,0,1-11.928,5.074l-.1.034c-.708.291-1.436.57-2.208.826a37.873,37.873,0,0,1-6.726,1.507,44.179,44.179,0,0,1-9.049,1.088,6.46,6.46,0,0,1-1.324-.126,14.833,14.833,0,0,0-2.866-.372H302.7a26.95,26.95,0,0,0,9.019,1.238c12.391-.136,28.582-7.546,34.635-10.544a4.9,4.9,0,0,0,2.7-3.874l1.085-10.173a5.309,5.309,0,0,0,2.9,1.537s-2.22-5.806-1.878-7.173a23.212,23.212,0,0,0,1.8,2.9.488.488,0,0,0,.866-.37C353.468,779.443,353.209,772.733,357.654,763.321Z" transform="translate(-254.794 -492.706)" fill="#0a243a"/>
  <path id="Path_1010" data-name="Path 1010" d="M357.654,763.321l-5.67-1.173c-.014.166-.028.332-.055.5-.551,3.458-1.224,7.142-2.134,10.826a4.275,4.275,0,0,1-.262,2.2c-2.736,6.743-3.853,13.947-6.864,20.606a4.67,4.67,0,0,1-2.429,2.309,22.511,22.511,0,0,0-3.21,1.914,41.487,41.487,0,0,1-11.928,5.074l-.1.034c-.708.291-1.436.57-2.208.826a37.873,37.873,0,0,1-6.726,1.507,44.179,44.179,0,0,1-9.049,1.088,6.46,6.46,0,0,1-1.324-.126,14.833,14.833,0,0,0-2.866-.372H302.7a26.95,26.95,0,0,0,9.019,1.238c12.391-.136,28.582-7.546,34.635-10.544a4.9,4.9,0,0,0,2.7-3.874l1.085-10.173a5.309,5.309,0,0,0,2.9,1.537s-2.22-5.806-1.878-7.173a23.212,23.212,0,0,0,1.8,2.9.488.488,0,0,0,.866-.37C353.468,779.443,353.209,772.733,357.654,763.321Z" transform="translate(-254.794 -492.706)" fill="#071c26"/>
  <path id="Path_1011" data-name="Path 1011" d="M475.647,751.794l2.59,16.5a10.7,10.7,0,0,0,3.887,6.688c4.88,3.912,13.765,11.491,15.724,16.264,2.732,6.66-.342,15.37-15.882,15.2-12.391-.136-28.582-7.546-34.636-10.544a4.9,4.9,0,0,1-2.7-3.874l-1.085-10.173a5.313,5.313,0,0,1-2.9,1.537s2.22-5.806,1.878-7.173a23.183,23.183,0,0,1-1.8,2.9.489.489,0,0,1-.868-.372c.365-2.632.622-9.341-3.821-18.749Z" transform="translate(-297.673 -489.376)" fill="#0a243a"/>
  <path id="Path_1012" data-name="Path 1012" d="M509.029,809.674c-.076-.184-.166-.375-.261-.568a13.771,13.771,0,0,1-2.835,8.777c-3.24,4.085-8.8,3.378-13.447,3.4-7.049.037-13.776.016-20.711-1.4-.325-.067-.652-.128-.978-.19,6.96,2.646,15.273,5.1,22.35,5.175C508.688,825.044,511.761,816.334,509.029,809.674Z" transform="translate(-308.855 -507.808)" fill="#071c26"/>
  <path id="Path_1013" data-name="Path 1013" d="M436.028,763.321l5.669-1.173c.014.166.028.332.055.5.551,3.458,1.224,7.142,2.134,10.826a4.275,4.275,0,0,0,.262,2.2c2.736,6.743,3.853,13.947,6.864,20.606a4.669,4.669,0,0,0,2.429,2.309,22.541,22.541,0,0,1,3.21,1.914,41.5,41.5,0,0,0,11.928,5.074l.1.034c.708.291,1.437.57,2.208.826a37.852,37.852,0,0,0,6.726,1.507,44.179,44.179,0,0,0,9.049,1.088,6.467,6.467,0,0,0,1.324-.126,14.819,14.819,0,0,1,2.865-.372h.133a26.948,26.948,0,0,1-9.018,1.238c-12.391-.136-28.582-7.546-34.636-10.544a4.9,4.9,0,0,1-2.7-3.874l-1.085-10.173a5.313,5.313,0,0,1-2.9,1.537s2.22-5.806,1.878-7.173a23.21,23.21,0,0,1-1.8,2.9.488.488,0,0,1-.866-.37C440.214,779.443,440.472,772.733,436.028,763.321Z" transform="translate(-297.673 -492.706)" fill="#071c26"/>
  <path id="Path_1014" data-name="Path 1014" d="M438.838,767.971l38.564-7.857,1,6.729s-34.635,4.561-37.474,11.314c0,0-.208-4.564-.655-5.507S440.039,770.339,438.838,767.971Z" transform="translate(-298.577 -492.052)" fill="#071c26"/>
  <path id="Path_1015" data-name="Path 1015" d="M332.878,644.844s-26.44,7.363-53.313-31.417a.6.6,0,0,0-1.094.246,11.886,11.886,0,0,0-.026,2.969.272.272,0,0,1-.492.186,31.3,31.3,0,0,0-29.437-12.8c-16.658,1.76-16.883,15.013-16.263,20.423a.552.552,0,0,0,1.064.137c1.247-3.1,4.471-8.263,11.784-6.557,8.128,1.9,7.659,14.756,7.118,19.99a1.3,1.3,0,0,1-2.172.817,11.185,11.185,0,0,1-3.41-5.437s-2.733,6.831,3.586,16.053,14.174,23.054,46.451,25.616c0,0-3.586,3.074-2.9,6.319a14.091,14.091,0,0,1,9.055-4.985,37.732,37.732,0,0,0,8-1.476c5.835-1.874,14.942-5.587,20.006-11.641C338.685,653.9,332.878,644.844,332.878,644.844Z" transform="translate(-232.084 -441.788)" fill="#071c26"/>
  <path id="Path_1016" data-name="Path 1016" d="M250.583,622.7c5.628,3.538,12.927,6.515,17.605.279,4.1-5.467,2.158-11.2-1.652-15.9a31.942,31.942,0,0,0-18.019-3.058c-16.658,1.76-16.883,15.014-16.263,20.424a.552.552,0,0,0,1.064.137c1.247-3.1,4.471-8.264,11.784-6.557A8.086,8.086,0,0,1,250.583,622.7Z" transform="translate(-232.084 -441.788)" fill="#0a243a"/>
  <path id="Path_1017" data-name="Path 1017" d="M332.962,648.591s-11.4,24.591-42.01,19.34c-26.472-4.541-30.147-19.81-30.657-23.857a.2.2,0,0,1,.381-.113c2.11,3.669,3.891,2.39,3.891,2.39s.384-25.426-14.6-29.909-17.63,11.757-17.63,11.757a.552.552,0,0,0,1.064.137c1.247-3.1,4.471-8.264,11.784-6.557,8.129,1.9,7.659,14.756,7.118,19.99a1.3,1.3,0,0,1-2.172.817,11.185,11.185,0,0,1-3.41-5.437s-2.732,6.831,3.587,16.052,14.174,23.055,46.45,25.616c0,0-3.586,3.074-2.9,6.319a14.091,14.091,0,0,1,9.054-4.985,37.7,37.7,0,0,0,8-1.476c5.835-1.874,14.942-5.587,20.006-11.641C338.768,657.641,332.962,648.591,332.962,648.591Z" transform="translate(-232.166 -445.595)" fill="#fff"/>
  <path id="Path_1018" data-name="Path 1018" d="M327.819,665.585a40.526,40.526,0,0,1-14.167,8.088,52.818,52.818,0,0,1-32.032.074c-9.552-2.955-19.514-7.009-26.084-14.884-3.089-3.7-4.295-7.571-1.786-11.93,2.873-4.991,1.653-11.236.389-16.645-1.163-4.979-5.654-10.164-11.177-9.888-6.168.309-8.282,4.446-10.455,9.544-.019.045-.041.084-.062.128a.553.553,0,0,0,.917-.178c1.247-3.1,4.471-8.264,11.784-6.557,8.129,1.9,7.659,14.755,7.118,19.99a1.3,1.3,0,0,1-2.172.817,11.185,11.185,0,0,1-3.41-5.437s-2.732,6.831,3.587,16.053,14.174,23.054,46.45,25.616c0,0-3.586,3.074-2.9,6.319a14.092,14.092,0,0,1,9.054-4.984,37.741,37.741,0,0,0,8-1.476c5.835-1.874,14.942-5.587,20.006-11.641a16.016,16.016,0,0,0,4.027-12.255A36.16,36.16,0,0,1,327.819,665.585Z" transform="translate(-232.201 -447.116)" fill="#e7e7e8"/>
  <path id="Path_1019" data-name="Path 1019" d="M350.087,684.878c-14.264,6.357-21.119,6.065-21.119,6.065s-.512,2.644-10.258,8.379c0,0,18.845.223,28.408-6.352S350.087,684.878,350.087,684.878Z" transform="translate(-259.943 -467.856)" fill="#e7e7e8"/>
  <path id="Path_1020" data-name="Path 1020" d="M362.137,767.67l-38.564-7.856-1,6.728s34.636,4.561,37.475,11.314c0,0,.208-4.564.655-5.507S360.936,770.039,362.137,767.67Z" transform="translate(-261.187 -491.955)" fill="#071c26"/>
  <path id="Path_1021" data-name="Path 1021" d="M508.449,632.305a6.942,6.942,0,0,0-1.853-3.01l-.094-.093a61.8,61.8,0,0,1-12.751-20.439l-.13-.389s2.789.868,2.72.247a25.025,25.025,0,0,0-3.831-4.944l3.922,1.2c-1.163-1.195-2.4-2.505-3.648-3.9-7.209-8.041-7.706-14.062-10.742-24.589l-.021-.1a1.933,1.933,0,0,0-.525-2.394l-1.452-6.628-25.336,12.865s14.051,14.632,17.364,45.449c.1.925.213,1.854.335,2.776a20.827,20.827,0,0,1-.685,9.154,4.647,4.647,0,0,0,.206,3.787c.536.978,1.86,1.237,3.538.848a7.839,7.839,0,0,0,4-2.436,11.327,11.327,0,0,0,1.413-1.847.38.38,0,0,1,.676.036c1.3,2.907,5.79,11.668,11.829,9.945a3.563,3.563,0,0,0,2.385-4.438.36.36,0,0,1,.509-.421c.959.471,2.706.866,4.826-.84,1.128-.908,1.206-3.662.437-4.916a.3.3,0,0,1,.3-.434c1.576.226,4.4.258,5.355-.4A4.17,4.17,0,0,0,508.449,632.305Z" transform="translate(-303.681 -430.03)" fill="#0a243a"/>
  <path id="Path_1022" data-name="Path 1022" d="M323.143,625.861c2.222-20.669,9.27-34.047,13.674-40.623a38.973,38.973,0,0,1,3.69-4.827l-25.337-12.865-1.452,6.628a1.935,1.935,0,0,0-.524,2.395l-.021.1c-3.036,10.527-3.532,16.549-10.742,24.589-1.252,1.4-2.486,2.707-3.649,3.9l3.922-1.2a25.018,25.018,0,0,0-3.83,4.944c-.069.621,2.72-.247,2.72-.247l-.134.4a61.719,61.719,0,0,1-12.748,20.43l-.094.094a6.948,6.948,0,0,0-1.853,3.009,4.171,4.171,0,0,0,1.25,4.088c.951.656,3.779.623,5.356.4a.3.3,0,0,1,.3.434c-.769,1.254-.691,4.009.436,4.916,2.121,1.707,3.868,1.311,4.826.841a.36.36,0,0,1,.51.421,3.564,3.564,0,0,0,2.385,4.438c6.043,1.724,10.53-7.046,11.831-9.949a.378.378,0,0,1,.673-.035,11.292,11.292,0,0,0,1.416,1.851,7.84,7.84,0,0,0,3.981,2.431c1.686.395,3.018.137,3.555-.844a4.055,4.055,0,0,0,.4-1.15,4.909,4.909,0,0,0-.193-2.638,20.837,20.837,0,0,1-.685-9.154C322.931,627.714,323.044,626.786,323.143,625.861Z" transform="translate(-249.631 -430.122)" fill="#0a243a"/>
  <path id="Path_1023" data-name="Path 1023" d="M300.021,644.282c-5.072-6.021-3.8-14.171-1.192-20.979a189.8,189.8,0,0,1,10.137-21.026c3.47-6.5,7.886-13.12,9.694-20.365a18.777,18.777,0,0,1-1.971-.67c-.758-.278-1.524-.512-2.269-.807a4.587,4.587,0,0,1-.571-.217l-.511.661a3.513,3.513,0,0,1-.274.242c-2.939,10.29-3.513,16.265-10.633,24.207-1.252,1.4-2.486,2.707-3.649,3.9l3.922-1.2a25,25,0,0,0-3.83,4.945c-.069.621,2.72-.248,2.72-.248l-.134.4a61.712,61.712,0,0,1-12.748,20.43l-.094.094a6.949,6.949,0,0,0-1.853,3.009,4.171,4.171,0,0,0,1.25,4.088c.951.656,3.779.623,5.356.4a.3.3,0,0,1,.3.434c-.769,1.254-.691,4.009.436,4.916,2.121,1.707,3.868,1.311,4.826.841a.361.361,0,0,1,.51.422,3.564,3.564,0,0,0,2.385,4.438c3.323.948,6.174-1.279,8.285-3.958-.155.02-.309.041-.465.056A10.88,10.88,0,0,1,300.021,644.282Z" transform="translate(-249.631 -434.197)" fill="#fff" opacity="0.11"/>
  <path id="Path_1024" data-name="Path 1024" d="M505.561,643.9c5.072-6.021,3.8-14.17,1.192-20.978A189.859,189.859,0,0,0,496.615,601.9c-3.47-6.5-7.886-13.119-9.694-20.364a18.87,18.87,0,0,0,1.971-.67c.759-.278,1.524-.511,2.27-.807a4.507,4.507,0,0,0,.57-.217l.512.662a3.512,3.512,0,0,0,.275.241c2.938,10.291,3.512,16.265,10.633,24.208,1.251,1.4,2.486,2.706,3.648,3.9l-3.922-1.2a25.034,25.034,0,0,1,3.83,4.945c.069.621-2.72-.247-2.72-.247l.134.4a61.719,61.719,0,0,0,12.748,20.43l.094.093a6.953,6.953,0,0,1,1.853,3.009,4.171,4.171,0,0,1-1.25,4.088c-.95.656-3.779.623-5.356.4a.3.3,0,0,0-.3.434c.769,1.254.691,4.009-.436,4.916-2.12,1.707-3.868,1.311-4.826.841a.36.36,0,0,0-.509.421,3.564,3.564,0,0,1-2.385,4.438c-3.323.948-6.174-1.279-8.285-3.957.155.02.31.041.465.056A10.882,10.882,0,0,0,505.561,643.9Z" transform="translate(-314.04 -434.076)" fill="#fff" opacity="0.11"/>
  <path id="Path_1025" data-name="Path 1025" d="M440.642,719.809c-2.019-.673-2.933-2.893-3.322-4.338a7.062,7.062,0,0,0-.948-2.114c-5.1-7.577-19.3-55.283-19.3-55.283-3.193,2.2-23.33,4.857-32.075,5.926a33.263,33.263,0,0,1-8.089,0c-8.744-1.069-28.881-3.731-32.074-5.926,0,0-14.195,47.706-19.3,55.283a7.061,7.061,0,0,0-.948,2.114c-.389,1.445-1.3,3.665-3.323,4.338-3.074,1.025-5.123,5.123,2.562,7.941,7.568,2.775,4.951,8.282,37.647,7.96a2.357,2.357,0,0,0,2.147-1.44c2.117-5.025,9.283-22.236,12.685-33a.894.894,0,0,1,1.095-.585,37.649,37.649,0,0,0,7.1,0,.891.891,0,0,1,1.091.588c3.4,10.761,10.564,27.965,12.683,32.994a2.363,2.363,0,0,0,2.151,1.443c32.694.322,30.077-5.186,37.644-7.96C445.765,724.932,443.716,720.834,440.642,719.809Z" transform="translate(-259.881 -459.236)" fill="#a46b36"/>
  <path id="Path_1026" data-name="Path 1026" d="M324.408,727.958c2.84-6.464,5.947-12.8,8.884-19.23,3.885-8.5,6.833-17.4,10.141-26.132,2.389-6.312,5.106-16.427,12.863-17.914,3.993-.765,8.485-.3,12.537-.427,1.83-.057,4.124.286,5.859-.391.092-.036.181-.081.272-.122-9.475-1.19-27.15-3.639-30.125-5.684,0,0-14.195,47.7-19.3,55.282a7.066,7.066,0,0,0-.948,2.115c-.389,1.444-1.3,3.665-3.323,4.338-3.074,1.024-5.123,5.123,2.562,7.941Q324.131,727.843,324.408,727.958Z" transform="translate(-259.881 -459.231)" fill="#6d3c1a"/>
  <path id="Path_1027" data-name="Path 1027" d="M389.107,718.622c-.091-.049-.174-.1-.257-.154a3.43,3.43,0,0,1-.365.781c-3.465,5.5-4.931,12.149-7.412,18.122-1.391,3.349-2.931,6.63-4.431,9.932-1.165,2.566-2,5.306-3.267,7.825,1.777.023,3.68.026,5.722.006a2.357,2.357,0,0,0,2.147-1.44c2.117-5.025,9.283-22.236,12.685-33a.882.882,0,0,1,.17-.307A18.918,18.918,0,0,1,389.107,718.622Z" transform="translate(-277.524 -478.658)" fill="#6d3c1a"/>
  <path id="Path_1028" data-name="Path 1028" d="M431.716,738.453c-1.869-3.663-3.041-7.561-4.612-11.348-1.151-2.775-2.982-5.625-4.066-8.546a18.27,18.27,0,0,1-5.8,2,.812.812,0,0,1,.088.162c3.4,10.761,10.565,27.965,12.683,32.994a2.364,2.364,0,0,0,2.151,1.443c2.722.026,5.2.012,7.454-.037C437.055,749.528,434.516,743.939,431.716,738.453Z" transform="translate(-291.629 -478.688)" fill="#6d3c1a"/>
  <path id="Path_1029" data-name="Path 1029" d="M357.238,655.775l-1.46,4.994s36.722,12.641,74.422.321l-1.781-5.414Z" transform="translate(-271.864 -458.465)" fill="#6d3c1a"/>
  <path id="Path_1030" data-name="Path 1030" d="M418.79,514.912s.493,4.932,4.25,7.323c3.647,2.321-14.576,14.615-19.094,21.791a.315.315,0,0,1-.563-.043,4.019,4.019,0,0,0-1.774-2.222c-1.236-.655-1.729,2.661-2.285,4.449-.085.273-1.33.746-1.437.48-.737-1.832-2.874-7.2-6.515-8.521,0,0-21.064-9.348-17.486-13.617s3.178-6.956,3.178-6.956Z" transform="translate(-277.557 -413.194)" fill="#a3a3a3"/>
  <path id="Path_1031" data-name="Path 1031" d="M322.578,749.11s4.872-1.241,6.262,1.844,7.73,3.184,7.73,3.184,6.169.893,8.452,2.383,7.943,1.457,7.943,1.457,9.731,1.458,14.3,0" transform="translate(-261.187 -488.434)" fill="none" stroke="#6d3c1a" stroke-miterlimit="10" stroke-width="1" opacity="0.54"/>
  <path id="Path_1032" data-name="Path 1032" d="M477.547,748.958s-4.872-1.24-6.262,1.845-7.73,3.184-7.73,3.184-6.169.893-8.452,2.383-7.943,1.458-7.943,1.458-9.731,1.457-14.3,0" transform="translate(-296.655 -488.385)" fill="none" stroke="#6d3c1a" stroke-miterlimit="10" stroke-width="1" opacity="0.54"/>
  <path id="Path_1033" data-name="Path 1033" d="M415.8,716.428s9.439-4.043,12.864-9.4c0,0-3.08,9.276-10.251,14.541C418.409,721.565,416.979,715.881,415.8,716.428Z" transform="translate(-291.167 -474.978)" fill="#6d3c1a"/>
  <path id="Path_1034" data-name="Path 1034" d="M396.764,722.035l1.546-4.551s.025-.931,1.857-.447c0,0-11.055-4.778-13.253-8.551C386.914,708.487,387.772,716.094,396.764,722.035Z" transform="translate(-281.878 -475.448)" fill="#6d3c1a"/>
  <path id="Path_1035" data-name="Path 1035" d="M512.786,816.029s5.3,3.1,5.147,6.508-4.446,2.291-4.446,2.291S514.939,819.243,512.786,816.029Z" transform="translate(-322.359 -510.034)" fill="#071c26"/>
  <path id="Path_1036" data-name="Path 1036" d="M524.744,814.713c-.085-.362-.071-.841-.164-1.222-.029.026-.164-.126-.259-.234a4.665,4.665,0,0,1-.622-.967,7.591,7.591,0,0,1-.417-.99,3.418,3.418,0,0,1-.486-1.033c-.72-.535-1.254-.85-1.254-.85,2.153,3.214.7,8.8.7,8.8a6.677,6.677,0,0,0,1.691.17c.384-.758.8-1.485,1.128-2.23-.009-.045-.022-.088-.029-.134C524.971,815.571,524.847,815.153,524.744,814.713Z" transform="translate(-325.174 -507.907)" fill="#071c26"/>
  <path id="Path_1037" data-name="Path 1037" d="M303.976,816.953s-5.3,3.1-5.147,6.509,4.446,2.291,4.446,2.291S301.824,820.167,303.976,816.953Z" transform="translate(-253.549 -510.331)" fill="#071c26"/>
  <path id="Path_1038" data-name="Path 1038" d="M293.2,816.224c.085-.362.071-.842.164-1.222.029.025.164-.127.259-.235a4.66,4.66,0,0,0,.622-.967,7.482,7.482,0,0,0,.417-.99,3.415,3.415,0,0,0,.487-1.033c.72-.535,1.254-.85,1.254-.85-2.153,3.214-.7,8.8-.7,8.8a6.685,6.685,0,0,1-1.69.17c-.384-.758-.8-1.485-1.128-2.229.009-.045.022-.089.028-.135C292.978,817.081,293.1,816.663,293.2,816.224Z" transform="translate(-251.639 -508.393)" fill="#071c26"/>
  <path id="Path_1039" data-name="Path 1039" d="M521.541,809.484a10.37,10.37,0,0,1,3.412,8.678" transform="translate(-325.174 -507.929)" fill="#071c26" stroke="#e7e7e8" stroke-miterlimit="10" stroke-width="1.4"/>
  <path id="Path_1040" data-name="Path 1040" d="M512.512,815.88s6.142,3.1,5.331,8.542" transform="translate(-322.27 -509.986)" fill="#071c26" stroke="#e7e7e8" stroke-miterlimit="10" stroke-width="1.4"/>
  <path id="Path_1041" data-name="Path 1041" d="M296.335,810.926a9.715,9.715,0,0,0-3.2,8.129" transform="translate(-251.705 -508.393)" fill="#071c26" stroke="#e7e7e8" stroke-miterlimit="10" stroke-width="1.4"/>
  <path id="Path_1042" data-name="Path 1042" d="M303.929,816.918s-5.753,2.906-4.994,8" transform="translate(-253.561 -510.32)" fill="#071c26" stroke="#e7e7e8" stroke-miterlimit="10" stroke-width="1.4"/>
  <path id="Path_1043" data-name="Path 1043" d="M420.21,511.5s-.854,6.831,2.732,9.222c3.482,2.321-14.12,12.85-18.433,20.025a.3.3,0,0,1-.537-.043,4,4,0,0,0-1.693-2.222c-1.18-.655-2.461,3.117-2.992,4.906a.3.3,0,0,1-.561.023c-.7-1.832-2.645-6-6.121-7.319,0,0-21.066-9.392-17.651-13.662s1.683-10.329,1.683-10.329Z" transform="translate(-277.911 -412.098)" fill="#0a243a"/>
  <path id="Path_1044" data-name="Path 1044" d="M377.247,511.5a13.958,13.958,0,0,1,.665,5.6c-.293,3.031,24.576,24.4,43.339.275l-.372-4.842Z" transform="translate(-278.769 -412.098)" fill="#071c26"/>
  <path id="Path_1045" data-name="Path 1045" d="M378.553,494.755s21.57,16.7,42.483.134c0,0-10.374,6.532-20.079,6.242C400.957,501.131,392,502.152,378.553,494.755Z" transform="translate(-279.189 -406.712)" fill="#707475" fill-rule="evenodd"/>
  <path id="Path_1046" data-name="Path 1046" d="M432.413,447.145a17.629,17.629,0,0,0-33.471-7.732,13.86,13.86,0,0,0-5.192-1,13.606,13.606,0,0,0-8.333,2.794,17.629,17.629,0,0,0-34.227,5.939s-2.231,24.96,15.252,37.481c13.123,9.4,37.6,9.4,50.719,0C434.644,472.1,432.413,447.145,432.413,447.145Z" transform="translate(-270.359 -385.731)" fill="#e7e7e8" fill-rule="evenodd"/>
  <path id="Path_1047" data-name="Path 1047" d="M416.755,495.5a41.975,41.975,0,0,1-22.2,7.156c-8.1.212-17.825.128-24.81-4.522-6.2-4.129-10.339-11.245-13.9-17.751-.7-.835-1.467-1.542-2.234-2.313a.358.358,0,0,0-.385-.11c1.762,7.55,5.614,16.294,13.915,22.239,13.123,9.4,37.6,9.4,50.719,0,7.837-5.612,11.7-13.72,13.593-20.963C426.388,484.5,422.706,491.284,416.755,495.5Z" transform="translate(-271.044 -401.305)" fill="#a3a3a3" fill-rule="evenodd" opacity="0.72"/>
  <path id="Path_1048" data-name="Path 1048" d="M446.023,393.573c5.851,3.67,11.83,9.474,16.7,18.614q.375.705.754,1.392c5.147-21.477,1.185-34.123-.969-38.893-7.369,5.13-16.484,18.887-16.484,18.887Z" transform="translate(-300.887 -368.097)" fill="#a3a3a3" fill-rule="evenodd"/>
  <path id="Path_1049" data-name="Path 1049" d="M366.4,393.5s-8.957-13.681-16.326-18.811c-2.155,4.769-6.116,17.416-.969,38.893q.379-.687.754-1.392l.016-.031.122-.227c4.842-8.993,10.607-14.8,16.4-18.431Z" transform="translate(-268.907 -368.097)" fill="#a3a3a3" fill-rule="evenodd"/>
  <path id="Path_1050" data-name="Path 1050" d="M415.708,490.033c-4.2-.259-9.4.307-13.421-3.959a14.494,14.494,0,0,1-1.278-3.313c-.246-.774-.1-5.1-.4-4.633-.538-.592-.081,3.785-.327,4.558a15.059,15.059,0,0,1-1.264,3.388c-4.022,4.266-9.22,3.7-13.421,3.959a19,19,0,0,1-6.655-.893.138.138,0,0,0-.109.25c7.245,4.263,14.858,6.384,21.234,6.376l.585,0,.585,0c6.369.008,12.427-1.346,20.079-6.242a.127.127,0,0,0-.1-.229A13.918,13.918,0,0,1,415.708,490.033Z" transform="translate(-279.257 -401.347)" fill="#040506"/>
  <g id="Group_789" data-name="Group 789" transform="translate(112.574 88.093)">
    <path id="Path_1051" data-name="Path 1051" d="M412.156,499.609a5.146,5.146,0,0,1-1.862-.385,5.717,5.717,0,0,0-4.346.044,7.136,7.136,0,0,1-2.644.353,1.75,1.75,0,0,0-1.359.707,11.152,11.152,0,0,0,6.127,1.726h.222a11.141,11.141,0,0,0,6-1.725A4.957,4.957,0,0,0,412.156,499.609Z" transform="translate(-399.286 -496.111)" fill="#ad001a"/>
    <path id="Path_1052" data-name="Path 1052" d="M412.122,499.609a5.146,5.146,0,0,1-1.862-.385,5.717,5.717,0,0,0-4.346.044,7.135,7.135,0,0,1-2.644.353,1.75,1.75,0,0,0-1.359.707,11.152,11.152,0,0,0,6.127,1.726h.222a11.141,11.141,0,0,0,6-1.725A4.957,4.957,0,0,0,412.122,499.609Z" transform="translate(-399.275 -496.111)" fill="url(#linear-gradient)"/>
    <path id="Path_1053" data-name="Path 1053" d="M415.068,495.606l-1.219-.49a3.95,3.95,0,0,0-1.478-.286H401.629a5.711,5.711,0,0,0-2.073.389l-.784.305-.238.175a1.247,1.247,0,0,0-.474,1.3l.3,1.244.73-1.134a1.032,1.032,0,0,1,.868-.474h13.778a1.032,1.032,0,0,1,.868.474l.73,1.134.307-1.272a1.245,1.245,0,0,0-.572-1.362Z" transform="translate(-398.025 -494.829)" fill="url(#linear-gradient-2)"/>
  </g>
  <path id="Path_1054" data-name="Path 1054" d="M425.4,412.539q-.379-.688-.754-1.392c-4.87-9.141-10.848-14.944-16.7-18.614.009-.013,9.119-13.759,16.484-18.887a15.859,15.859,0,0,0-1.157-2.193s-15.493,5.927-23.617,17.106h0c-8.624-2.985-22.274-2.985-30.9,0-8.124-11.179-23.618-17.106-23.618-17.106a15.859,15.859,0,0,0-1.157,2.193c7.369,5.13,16.326,18.811,16.326,18.811-5.781,3.626-11.533,9.411-16.367,18.366l-.035.064-.1.195,0,0-.006.01v0l-.006.011,0,0h0l-.016.031q-.377.705-.754,1.392a92.378,92.378,0,0,1-15.381,20.895c5.641,4.6,8.647,11.411,14.637,20.743,4.193,6.532,12.17,10.185,16.578,11.79-17.483-12.521-15.252-37.481-15.252-37.481a17.631,17.631,0,0,1,34.511-5.087,12.036,12.036,0,0,1-.116,7.078c-.711,2.252-1.785,5.129-2.925,6.294,0,0,1.134-.8,2.293-1.465-.034.083-.07.162-.1.244a3.1,3.1,0,0,1,2.523-1.147h.029a11.518,11.518,0,0,1,4.351-.818h.1a11.655,11.655,0,0,1,3.983.683c.1-.007.2-.015.3-.015a3.134,3.134,0,0,1,2.36.957c1.214.676,2.461,1.56,2.461,1.56-1.118-1.144-2.173-3.936-2.885-6.17a12.466,12.466,0,0,1,.023-7.788,17.63,17.63,0,0,1,34.322,5.673s2.231,24.96-15.252,37.481c4.408-1.6,12.384-5.258,16.577-11.79,5.991-9.332,9-16.139,14.638-20.743A92.377,92.377,0,0,1,425.4,412.539Z" transform="translate(-262.813 -367.058)" fill="#0a243a" fill-rule="evenodd"/>
  <path id="Path_1055" data-name="Path 1055" d="M412.964,445.01a17.531,17.531,0,0,1,1.975-4.01c-5.506,1.842-11.377,2.236-16.538-.01a17.534,17.534,0,0,1,2.171,4.6,12.03,12.03,0,0,1-.115,7.078c-.712,2.253-1.785,5.129-2.925,6.295,0,0,1.134-.8,2.292-1.465-.034.083-.069.162-.1.244a3.1,3.1,0,0,1,2.523-1.146h.029a11.518,11.518,0,0,1,4.351-.818h.1a11.659,11.659,0,0,1,3.983.683c.1-.007.2-.015.3-.015a3.135,3.135,0,0,1,2.36.957c1.214.676,2.461,1.56,2.461,1.56-1.118-1.144-2.174-3.937-2.885-6.17A12.466,12.466,0,0,1,412.964,445.01Z" transform="translate(-285.293 -389.421)" fill="#071c26" fill-rule="evenodd"/>
  <path id="Path_1056" data-name="Path 1056" d="M415.291,470.509c0-2.885-3.6-5.228-8.055-5.263h-.1c-4.457.035-8.055,2.377-8.055,5.262,0,3.44,4.045,5.167,8.105,5.182,4.06-.014,8.1-1.741,8.1-5.182Z" transform="translate(-285.791 -397.222)" fill="#040506" fill-rule="evenodd"/>
  <path id="Path_1057" data-name="Path 1057" d="M354.159,407.685s4-7.66,13.9-14.188c0,0-9.943-14.862-16.326-18.811A33.656,33.656,0,0,1,354.159,407.685Z" transform="translate(-270.565 -368.097)" fill="#6f6b6d"/>
  <path id="Path_1058" data-name="Path 1058" d="M460.144,407.762a45.053,45.053,0,0,0-14.105-14.2s10.1-14.938,16.484-18.887A33.915,33.915,0,0,0,460.144,407.762Z" transform="translate(-300.893 -368.093)" fill="#6f6b6d"/>
  <g id="Group_790" data-name="Group 790" transform="translate(131.23 52.522)">
    <path id="Path_1059" data-name="Path 1059" d="M425.525,453.964a15.153,15.153,0,0,1,4.2-5.848c.142-.113.284-.229.427-.351,4.63-3.911,11.719-6.61,21.07-4.789h0c0,.623-.348,1.114-.753,1.056a2.873,2.873,0,0,0-1.826.14c-.595.48.89,11.5-6.251,15.806-6.047,3.649-12.007-3.916-13.437-6.732-.36-.707-.666-1.144-1.092-1.037-.867.216-1.467,1.157-2.205,1.928Z" transform="translate(-425.525 -442.395)" fill="#a3a3a3"/>
    <path id="Path_1060" data-name="Path 1060" d="M438.434,460.22a6.181,6.181,0,0,0,1.661.394c5.652-4.49,1.175-12.744-.113-14.856a17.333,17.333,0,0,0-9.171,6.625S433.677,458.383,438.434,460.22Z" transform="translate(-427.225 -443.477)" fill="#a3a3a3"/>
    <path id="Path_1061" data-name="Path 1061" d="M444.443,460.225c2.471.232,4.93-1.114,6.685-4.005,1.411-2.325,2.57-5.9,2.4-11.341a19.488,19.488,0,0,0-9.194.491C445.618,447.481,450.094,455.736,444.443,460.225Z" transform="translate(-431.573 -443.088)" fill="#a3a3a3"/>
  </g>
  <g id="Group_791" data-name="Group 791" transform="translate(84.702 52.39)">
    <path id="Path_1062" data-name="Path 1062" d="M382.637,453.769a15.147,15.147,0,0,0-4.2-5.848q-.212-.17-.427-.351c-4.63-3.912-11.718-6.611-21.07-4.789h0c0,.623.348,1.114.752,1.056a2.867,2.867,0,0,1,1.826.14c.6.48-.889,11.5,6.252,15.806,6.046,3.649,12.006-3.917,13.436-6.732.36-.707.666-1.144,1.093-1.037.866.216,1.466,1.157,2.205,1.928Z" transform="translate(-356.94 -442.2)" fill="#a3a3a3"/>
    <path id="Path_1063" data-name="Path 1063" d="M376.186,460.025a6.228,6.228,0,0,1-1.66.394c-5.652-4.49-1.176-12.744.113-14.856a17.332,17.332,0,0,1,9.171,6.625S380.944,458.187,376.186,460.025Z" transform="translate(-361.699 -443.282)" fill="#a3a3a3"/>
    <path id="Path_1064" data-name="Path 1064" d="M371.535,460.03c-2.472.232-4.93-1.114-6.685-4.005-1.411-2.325-2.57-5.9-2.4-11.341a19.491,19.491,0,0,1,9.194.491C370.359,447.286,365.883,455.541,371.535,460.03Z" transform="translate(-358.707 -442.893)" fill="#a3a3a3"/>
  </g>
  <g id="Group_793" data-name="Group 793" transform="translate(132.124 53.628)">
    <g id="Group_792" data-name="Group 792">
      <path id="Path_1065" data-name="Path 1065" d="M426.843,454.09A13.243,13.243,0,0,1,430.7,449c.13-.1.26-.2.393-.305,4.251-3.4,10.758-5.751,19.343-4.167h0c0,.543-.32.969-.691.919a2.774,2.774,0,0,0-1.676.122c-.546.418.817,10-5.739,13.751-5.551,3.174-11.023-3.408-12.336-5.857-.33-.615-.611-1-1-.9-.8.189-1.347,1.007-2.025,1.678Z" transform="translate(-426.843 -444.025)" fill="#040506"/>
      <path id="Path_1066" data-name="Path 1066" d="M438.7,459.533a5.965,5.965,0,0,0,1.524.343c5.188-3.906,1.079-11.088-.1-12.924a15.927,15.927,0,0,0-8.42,5.764S434.327,457.934,438.7,459.533Z" transform="translate(-428.404 -444.967)" fill="#040506"/>
      <path id="Path_1067" data-name="Path 1067" d="M444.211,459.538c2.269.2,4.526-.969,6.137-3.484,1.3-2.023,2.359-5.136,2.2-9.867a18.858,18.858,0,0,0-8.441.427C445.289,448.45,449.4,455.632,444.211,459.538Z" transform="translate(-432.395 -444.628)" fill="#00a8db"/>
    </g>
    <ellipse id="Ellipse_2" data-name="Ellipse 2" cx="1.784" cy="2.244" rx="1.784" ry="2.244" transform="translate(6.727 6.971)" fill="#c3c2c1"/>
  </g>
  <g id="Group_795" data-name="Group 795" transform="translate(86.21 53.608)">
    <g id="Group_794" data-name="Group 794">
      <path id="Path_1068" data-name="Path 1068" d="M382.688,454.186a13.248,13.248,0,0,0-3.821-5.114q-.193-.149-.39-.308c-4.227-3.431-10.719-5.825-19.315-4.3h0c0,.542.313.971.685.923a2.768,2.768,0,0,1,1.675.134c.544.421-.885,9.995,5.645,13.79,5.529,3.213,11.046-3.331,12.376-5.771.334-.613.618-.99,1.009-.9.794.193,1.34,1.016,2.013,1.692Z" transform="translate(-359.163 -443.996)" fill="#040506"/>
      <path id="Path_1069" data-name="Path 1069" d="M376.7,459.58a5.967,5.967,0,0,1-1.526.332c-5.161-3.941-1-11.095.193-12.923a15.929,15.929,0,0,1,8.38,5.822S381.084,458.011,376.7,459.58Z" transform="translate(-363.502 -444.958)" fill="#040506"/>
      <path id="Path_1070" data-name="Path 1070" d="M372.456,459.557c-2.271.186-4.519-1-6.113-3.527-1.282-2.031-2.324-5.152-2.132-9.882a18.852,18.852,0,0,1,8.437.485C371.453,448.462,367.294,455.615,372.456,459.557Z" transform="translate(-360.779 -444.603)" fill="#00a8db"/>
    </g>
    <ellipse id="Ellipse_3" data-name="Ellipse 3" cx="1.784" cy="2.244" rx="1.784" ry="2.244" transform="translate(13.356 7.352)" fill="#c3c2c1"/>
  </g>
  <path id="Path_1071" data-name="Path 1071" d="M388.92,474.164s.145-.339.436-.91c5.734-11.27,17.83-13.486,25.968-5a61.958,61.958,0,0,1,4.955,5.912" transform="translate(-282.523 -396.531)" fill="none" stroke="#0a243a" stroke-miterlimit="10" stroke-width="2" fill-rule="evenodd"/>
  <path id="Path_1072" data-name="Path 1072" d="M333.28,480.171a28.341,28.341,0,0,1,11.515,9.3c4.361,6.422.292-8.2.292-8.2S338.4,474.566,333.28,480.171Z" transform="translate(-264.629 -401.303)" fill="#0a243a" fill-rule="evenodd"/>
  <path id="Path_1073" data-name="Path 1073" d="M482.071,480.556a28.34,28.34,0,0,0-11.516,9.3c-4.361,6.422-.291-8.2-.291-8.2S476.952,474.95,482.071,480.556Z" transform="translate(-308.128 -401.426)" fill="#0a243a" fill-rule="evenodd"/>
  <path id="Path_1074" data-name="Path 1074" d="M468.674,374.469c.165.5,5.882,18.612.6,36.854l1.492,2.039s6.5-23.647-1.182-39.35Z" transform="translate(-308.172 -367.881)" fill="#0a243a" fill-rule="evenodd"/>
  <path id="Path_1075" data-name="Path 1075" d="M351.112,374.47c-.166.5-5.882,18.612-.6,36.854l-1.492,2.038s-6.5-23.647,1.182-39.349Z" transform="translate(-268.867 -367.881)" fill="#0a243a" fill-rule="evenodd"/>
  <path id="Path_1076" data-name="Path 1076" d="M371.237,449.191a20.244,20.244,0,0,1,1.411-2.558,18.855,18.855,0,0,0-8.438-.485,24.7,24.7,0,0,0,.068,3.177A13.52,13.52,0,0,1,371.237,449.191Z" transform="translate(-274.569 -390.995)" fill="#0a243a" opacity="0.6"/>
  <path id="Path_1077" data-name="Path 1077" d="M445.515,449.191a20.259,20.259,0,0,0-1.41-2.558,18.852,18.852,0,0,1,8.437-.485,24.569,24.569,0,0,1-.068,3.177A13.52,13.52,0,0,0,445.515,449.191Z" transform="translate(-300.271 -390.995)" fill="#0a243a" opacity="0.6"/>
  <path id="Path_1078" data-name="Path 1078" d="M303.17,637.569a6.7,6.7,0,0,1-1.616,4.294c-1.809,2.407,16.576,12.385,25.725,10.374l.512-4.294Z" transform="translate(-254.386 -452.641)" fill="#071c26"/>
  <path id="Path_1079" data-name="Path 1079" d="M504.278,637.13a6.694,6.694,0,0,0,1.616,4.294c1.809,2.407-16.576,12.385-25.725,10.374l-.512-4.294Z" transform="translate(-311.705 -452.5)" fill="#071c26"/>
  <g id="Group_803" data-name="Group 803" transform="translate(42.965 103.1)">
    <path id="Path_1080" data-name="Path 1080" d="M449.536,600.143c2.483-7.591-8.859-32.247-16.935-46.872-3.916-7.091-8.384-12.759-9.1-15.412a20.5,20.5,0,0,0-7.462-10.949c-5.034-3.809-11.79-7.616-17.794-6.62-.325.054-1.324.165-1.242.485.564,2.23,1.647,10.893-21.555,20.486-23.2-9.593-21.464-18.283-20.9-20.513.081-.32-1.573-.4-1.9-.458-6-1-12.759,2.811-17.794,6.62a20.5,20.5,0,0,0-7.463,10.949c-.717,2.653-4.887,7.866-8.8,14.958C310.537,567.4,301,590.7,300.846,598.757c-.026,1.317-.3,2.58.91,3.1l26.617,11.44a.718.718,0,0,0,.963-.422c1.851-5.275,3.929-25.432,9.485-33.119a.5.5,0,0,1,.915.269c.37,11.1.692,34.166-2.851,37.315a11.021,11.021,0,0,0-3.622,6.768,3.794,3.794,0,0,0,2.591,4.17c11.316,3.6,39.591,4.7,39.591,4.7s28.275-1.1,39.591-4.7a3.8,3.8,0,0,0,2.591-4.171,11.018,11.018,0,0,0-3.622-6.767c-3.733-3.317-3.174-28.746-2.791-38.992a.893.893,0,0,1,1.692-.362c3.947,7.733,6.842,30.524,8.039,36.135a.718.718,0,0,0,.987.5l26.646-11.453C449.759,602.667,449.137,601.363,449.536,600.143Z" transform="translate(-297.148 -517.972)" fill="#331f13"/>
    <path id="Path_1081" data-name="Path 1081" d="M397.925,550.792c-7.15,3.728-19.574,7.9-25.332,9.744a4.19,4.19,0,0,0-2.9,4.233l4.41,76.28,3.3.356" transform="translate(-319.3 -527.834)" fill="#22150f"/>
    <path id="Path_1082" data-name="Path 1082" d="M507.82,644.473c-.551-.521-.751-1.444-1.171-2.068-.142-.212-.575-.131-.711-.347-.071-.116-.146-.229-.221-.343-.059-.06-.107-.124-.161-.186a26.006,26.006,0,0,0-4.728,1.549c-2.528,1.016-4.954,2.271-7.483,3.292-2.865,1.158-5.7,2.3-8.477,3.654a23.934,23.934,0,0,1-5.212,1.727,2.545,2.545,0,0,1,.7,1.366,26.038,26.038,0,0,1,.321,2.887,12.927,12.927,0,0,0,4.769-2.077,12.035,12.035,0,0,1,6.548-1.9,6.343,6.343,0,0,0,4.066-1.453,15.079,15.079,0,0,1,5.916-3.2c1.937-.382,4.638-2.778,5.873-2.872Z" transform="translate(-354.668 -557.015)" fill="#331f13" opacity="0.54"/>
    <path id="Path_1083" data-name="Path 1083" d="M326.644,656.791c.025-1.234-.243-2.423-.3-3.648a21.336,21.336,0,0,1,.25-2.988c-3.543-.824-7.126-1.532-10.653-2.325-5.205-1.17-10.122-3.869-15.259-5.093a13.874,13.874,0,0,1-2.3,3.383c.508.29.94.379,1.129.115.745-1.043,4.1,2.229,6.392,2.68a15.078,15.078,0,0,1,5.916,3.2,6.346,6.346,0,0,0,4.066,1.454,12.032,12.032,0,0,1,6.548,1.9,14.97,14.97,0,0,0,4.26,1.982A3.736,3.736,0,0,1,326.644,656.791Z" transform="translate(-296.37 -557.403)" fill="#331f13" opacity="0.54"/>
    <path id="Path_1084" data-name="Path 1084" d="M379.488,640.787l-4.513-78.058a4.193,4.193,0,0,1,2.906-4.232c5.758-1.848,18.182-6.015,25.332-9.744" transform="translate(-321.001 -527.178)" fill="#331f13" stroke="#a46b36" stroke-miterlimit="10" stroke-width="2"/>
    <path id="Path_1085" data-name="Path 1085" d="M373.283,529.611a14.4,14.4,0,0,1-4.219-7.133s-.429-.21-1.172-.494a2.733,2.733,0,0,1-2.864,1.445c-4.052-.38-10.363.406-13.6,3.508a.211.211,0,0,1-.049.037,5.983,5.983,0,0,0-1.3,1c-.039.042-.08.083-.122.123,1.758.376,3.929,1.185,3.04,2.829-.906,1.676-.048,4.014.7,5.492a2.18,2.18,0,0,0,2.2,1.2c1.888-.231,5.064-.4,5.389.967.349,1.469,4.08,4.488,5.94,5.918a1.976,1.976,0,0,0,2.122.189c2.154-1.125,6.953-3.3,8.987-1.549,2.664,2.29,8.378-2.477,8.378-2.477S376.775,532.865,373.283,529.611Z" transform="translate(-312.956 -518.569)" fill="#22150f"/>
    <path id="Path_1086" data-name="Path 1086" d="M454.034,528.49a26.1,26.1,0,0,0-2.692-1.335c-1.668-.623-3.733-.528-5.5-.8-1.645-.254-3.391-.855-5.062-.539a3.369,3.369,0,0,1-3.075-.9,79.307,79.307,0,0,0-6.582,5.819c-3.375,3.375-13.027,11.521-13.027,11.521s5.88,4.562,8.461,2.18c1.971-1.82,6.844.182,9.036,1.23a1.975,1.975,0,0,0,2.114-.263c1.809-1.495,5.43-4.644,5.727-6.125.277-1.383,3.456-1.321,5.352-1.158a2.179,2.179,0,0,0,2.161-1.275c.691-1.5,1.467-3.871.5-5.513C450.571,529.828,452.373,528.957,454.034,528.49Z" transform="translate(-334.873 -519.512)" fill="#22150f"/>
    <g id="Group_796" data-name="Group 796" transform="translate(60.024 37.549)">
      <path id="Path_1087" data-name="Path 1087" d="M388.56,575.018c.374.058,6.74.7,9.622.993a.174.174,0,0,1,.006.346l-9.628,1.416" transform="translate(-385.396 -573.174)" fill="none" stroke="#211510" stroke-miterlimit="10" stroke-width="1"/>
      <ellipse id="Ellipse_4" data-name="Ellipse 4" cx="2.978" cy="2.978" rx="2.978" ry="2.978" fill="#22150f"/>
      <ellipse id="Ellipse_5" data-name="Ellipse 5" cx="0.424" cy="0.424" rx="0.424" ry="0.424" transform="translate(1.466 1.53)" fill="#22150f"/>
      <ellipse id="Ellipse_6" data-name="Ellipse 6" cx="0.424" cy="0.424" rx="0.424" ry="0.424" transform="translate(3.528 1.53)" fill="#22150f"/>
      <ellipse id="Ellipse_7" data-name="Ellipse 7" cx="0.424" cy="0.424" rx="0.424" ry="0.424" transform="translate(1.466 3.578)" fill="#22150f"/>
      <ellipse id="Ellipse_8" data-name="Ellipse 8" cx="0.424" cy="0.424" rx="0.424" ry="0.424" transform="translate(3.528 3.578)" fill="#22150f"/>
    </g>
    <g id="Group_797" data-name="Group 797" transform="translate(60.186 51.469)">
      <path id="Path_1088" data-name="Path 1088" d="M388.714,595.526c.376.038,6.766.356,9.66.5a.174.174,0,0,1,.024.345l-9.542,1.907" transform="translate(-385.608 -593.69)" fill="none" stroke="#211510" stroke-miterlimit="10" stroke-width="1"/>
      <ellipse id="Ellipse_9" data-name="Ellipse 9" cx="2.978" cy="2.978" rx="2.978" ry="2.978" fill="#22150f"/>
      <ellipse id="Ellipse_10" data-name="Ellipse 10" cx="0.424" cy="0.424" rx="0.424" ry="0.424" transform="translate(1.415 1.587)" fill="#22150f"/>
      <ellipse id="Ellipse_11" data-name="Ellipse 11" cx="0.424" cy="0.424" rx="0.424" ry="0.424" transform="translate(3.474 1.482)" fill="#22150f"/>
      <ellipse id="Ellipse_12" data-name="Ellipse 12" cx="0.424" cy="0.424" rx="0.424" ry="0.424" transform="translate(1.52 3.632)" fill="#22150f"/>
      <ellipse id="Ellipse_13" data-name="Ellipse 13" cx="0.424" cy="0.424" rx="0.424" ry="0.424" transform="translate(3.579 3.526)" fill="#22150f"/>
    </g>
    <g id="Group_798" data-name="Group 798" transform="translate(61.739 66.538)">
      <path id="Path_1089" data-name="Path 1089" d="M391,617.738c.377.039,6.767.357,9.66.5a.174.174,0,0,1,.023.345l-9.542,1.907" transform="translate(-387.897 -615.902)" fill="none" stroke="#211510" stroke-miterlimit="10" stroke-width="1"/>
      <ellipse id="Ellipse_14" data-name="Ellipse 14" cx="2.978" cy="2.978" rx="2.978" ry="2.978" fill="#22150f"/>
      <ellipse id="Ellipse_15" data-name="Ellipse 15" cx="0.424" cy="0.424" rx="0.424" ry="0.424" transform="translate(1.415 1.587)" fill="#22150f"/>
      <ellipse id="Ellipse_16" data-name="Ellipse 16" cx="0.424" cy="0.424" rx="0.424" ry="0.424" transform="translate(3.474 1.482)" fill="#22150f"/>
      <ellipse id="Ellipse_17" data-name="Ellipse 17" cx="0.424" cy="0.424" rx="0.424" ry="0.424" transform="translate(1.52 3.632)" fill="#22150f"/>
      <ellipse id="Ellipse_18" data-name="Ellipse 18" cx="0.424" cy="0.424" rx="0.424" ry="0.424" transform="translate(3.579 3.526)" fill="#22150f"/>
    </g>
    <g id="Group_799" data-name="Group 799" transform="translate(60.186 50.809)">
      <path id="Path_1090" data-name="Path 1090" d="M388.7,594.551c.376.036,6.769.312,9.663.436a.174.174,0,0,1,.026.345l-9.53,1.97" transform="translate(-385.604 -592.716)" fill="none" stroke="#6d3c1a" stroke-miterlimit="10" stroke-width="1"/>
      <ellipse id="Ellipse_19" data-name="Ellipse 19" cx="2.978" cy="2.978" rx="2.978" ry="2.978" fill="#a46b36"/>
      <ellipse id="Ellipse_20" data-name="Ellipse 20" cx="0.424" cy="0.424" rx="0.424" ry="0.424" transform="translate(1.409 1.595)" fill="#331f13"/>
      <ellipse id="Ellipse_21" data-name="Ellipse 21" cx="0.424" cy="0.424" rx="0.424" ry="0.424" transform="translate(3.467 1.476)" fill="#331f13"/>
      <ellipse id="Ellipse_22" data-name="Ellipse 22" cx="0.424" cy="0.424" rx="0.424" ry="0.424" transform="translate(1.527 3.639)" fill="#331f13"/>
      <ellipse id="Ellipse_23" data-name="Ellipse 23" cx="0.424" cy="0.424" rx="0.424" ry="0.424" transform="translate(3.585 3.52)" fill="#331f13"/>
    </g>
    <g id="Group_800" data-name="Group 800" transform="translate(61.626 65.997)">
      <path id="Path_1091" data-name="Path 1091" d="M390.826,616.939c.377.036,6.768.312,9.663.436a.174.174,0,0,1,.025.345l-9.529,1.969" transform="translate(-387.727 -615.104)" fill="none" stroke="#6d3c1a" stroke-miterlimit="10" stroke-width="1"/>
      <ellipse id="Ellipse_24" data-name="Ellipse 24" cx="2.978" cy="2.978" rx="2.978" ry="2.978" fill="#a46b36"/>
      <ellipse id="Ellipse_25" data-name="Ellipse 25" cx="0.424" cy="0.424" rx="0.424" ry="0.424" transform="translate(1.409 1.595)" fill="#331f13"/>
      <ellipse id="Ellipse_26" data-name="Ellipse 26" cx="0.424" cy="0.424" rx="0.424" ry="0.424" transform="translate(3.467 1.476)" fill="#331f13"/>
      <ellipse id="Ellipse_27" data-name="Ellipse 27" cx="0.424" cy="0.424" rx="0.424" ry="0.424" transform="translate(1.527 3.639)" fill="#331f13"/>
      <ellipse id="Ellipse_28" data-name="Ellipse 28" cx="0.424" cy="0.424" rx="0.424" ry="0.424" transform="translate(3.585 3.52)" fill="#331f13"/>
    </g>
    <g id="Group_801" data-name="Group 801" transform="translate(86.467 37.947)">
      <path id="Path_1092" data-name="Path 1092" d="M448.649,579.274V572.9c.575,0,1.111,0,1.646,0,.775.007,1.558-.034,2.326.046a1.792,1.792,0,0,1,1.754,2.018,1.946,1.946,0,0,1-1.8,2.132c-.594.075-1.2.085-1.85.129v2.447h-4.2a.34.34,0,0,1-.06-.086c-.374-1.025-.373-1.027-1.446-1.025-.4,0-.879-.122-1.163.06s-.339.671-.509,1.058h-2.06c.16-.438.3-.836.45-1.231.64-1.706,1.289-3.409,1.915-5.12.115-.315.261-.461.613-.437a12.056,12.056,0,0,0,1.426,0,.512.512,0,0,1,.584.408c.682,1.859,1.387,3.709,2.085,5.562.054.144.115.287.172.43Zm2.081-5.026v.841c0,.758.047.8.813.68a1.482,1.482,0,0,0,.233-.043.7.7,0,0,0,.557-.727.673.673,0,0,0-.594-.693A7.211,7.211,0,0,0,450.729,574.248Zm-5.027,2.83-.7-2.252a4.448,4.448,0,0,0-.456,1.093c-.113.372-.218.747-.339,1.159Z" transform="translate(-428.795 -572.887)" fill="#fff"/>
      <path id="Path_1093" data-name="Path 1093" d="M422.874,579.753V572.99c.055-.028.1-.067.137-.068,1.362,0,2.724-.043,4.084.006a1.629,1.629,0,0,1,1.637,1.212c.2.789-.04,1.309-.9,1.924a1.4,1.4,0,0,0,.188.128,1.548,1.548,0,0,1,1.06,1.794,1.682,1.682,0,0,1-1.554,1.6C426,579.685,424.462,579.7,422.874,579.753Zm2.814-1.484c.079,0,.157,0,.236,0,.7-.018,1.086-.273,1.092-.727s-.336-.7-1.049-.7c-1.239-.011-1-.172-1.035,1-.01.322.083.48.424.433A2.672,2.672,0,0,1,425.688,578.269Zm-.676-2.725c.387,0,.767.025,1.142-.007a.589.589,0,0,0,.591-.621.6.6,0,0,0-.581-.628c-1.147-.189-1.316-.034-1.212,1.12A.669.669,0,0,0,425.012,575.543Z" transform="translate(-422.874 -572.892)" fill="#fff"/>
      <path id="Path_1094" data-name="Path 1094" d="M438.819,572.9c0,1.544.069,3.021-.02,4.489a2.488,2.488,0,0,1-2.453,2.39,7.483,7.483,0,0,1-1.657-.054,2.5,2.5,0,0,1-2.338-2.64c-.032-1.268,0-2.538-.006-3.806,0-.29.1-.393.389-.385.535.014,1.071,0,1.682,0v.594c0,1.19-.007,2.379.005,3.569a1.169,1.169,0,0,0,2.242.478,2.627,2.627,0,0,0,.1-.84c.011-1.125.016-2.252,0-3.378-.006-.341.108-.442.435-.429C437.72,572.917,438.241,572.9,438.819,572.9Z" transform="translate(-425.918 -572.889)" fill="#fff"/>
    </g>
    <path id="Path_1095" data-name="Path 1095" d="M370.135,519.278s-7.155-3.84-14.1-1.657c-4.117,1.294-5.865,3.241-6.606,4.612a1.283,1.283,0,0,0,.866,1.855c1.791.383,4.532,1.279,3.484,3.064-.965,1.643-.19,4.009.5,5.513a2.18,2.18,0,0,0,2.161,1.276c1.895-.164,5.074-.225,5.352,1.157.3,1.482,3.918,4.63,5.726,6.125a1.974,1.974,0,0,0,2.114.263c2.193-1.047,7.066-3.049,9.037-1.23,2.581,2.382,8.461-2.179,8.461-2.179s-9.652-8.146-13.028-11.521A14.4,14.4,0,0,1,370.135,519.278Z" transform="translate(-312.737 -516.95)" fill="#a46b36"/>
    <path id="Path_1096" data-name="Path 1096" d="M434.216,519.278s7.155-3.84,14.1-1.657c4.117,1.294,5.864,3.241,6.6,4.612a1.282,1.282,0,0,1-.866,1.855c-1.791.383-4.532,1.279-3.484,3.064.965,1.643.19,4.009-.5,5.513a2.18,2.18,0,0,1-2.161,1.276c-1.9-.164-5.075-.225-5.352,1.157-.3,1.482-3.918,4.63-5.727,6.125a1.974,1.974,0,0,1-2.114.263c-2.193-1.047-7.065-3.049-9.036-1.23-2.581,2.382-8.461-2.179-8.461-2.179s9.652-8.146,13.027-11.521A14.407,14.407,0,0,0,434.216,519.278Z" transform="translate(-334.59 -516.95)" fill="#a46b36"/>
    <path id="Path_1097" data-name="Path 1097" d="M361.226,522.09c2.2,3.847,3.638,7.351,7.331,10.118s7.89,3.713,12.41,4.228c2.686.307,5.391.683,8.1.958-2.385-2.026-9.436-8.053-12.221-10.837a14.4,14.4,0,0,1-3.964-7.279s-7.155-3.84-14.1-1.657c-.33.1-.64.214-.941.325A18.049,18.049,0,0,1,361.226,522.09Z" transform="translate(-315.491 -516.95)" fill="#22150f" opacity="0.61"/>
    <path id="Path_1098" data-name="Path 1098" d="M439.528,527.646c3.475-3.009,6.218-6.551,9.285-9.934l.012-.012c-.078-.026-.151-.052-.229-.077-6.95-2.184-14.1,1.657-14.1,1.657a14.408,14.408,0,0,1-3.965,7.279c-2.868,2.869-10.267,9.179-12.425,11.011C426.017,536.682,433.562,532.812,439.528,527.646Z" transform="translate(-334.872 -516.95)" fill="#22150f" opacity="0.61"/>
    <path id="Path_1099" data-name="Path 1099" d="M468.614,598.387c1.185-2.97,2.756-6.345,4.013-7.039a8.531,8.531,0,0,1,4.713-.993s-.054-.431-5.752,0c-1.71.13-3.218,1.923-4.376,3.908-1.206-3.365-1.9-4.826-1.9-4.826l-.514,10.3c.578-.067,1.229,1.052,1.908,2.935.054.166.109.33.164.516l.008-.024c2.906,8.538,6.261,30.252,6.662,32.887a1.362,1.362,0,0,0,.179.5.786.786,0,0,0,.986.318l3.259-1.411A348.469,348.469,0,0,0,468.614,598.387Z" transform="translate(-349.889 -540.262)" fill="#22150f"/>
    <path id="Path_1100" data-name="Path 1100" d="M350.847,603.833c.62-1.144,1.174-1.774,1.623-1.682l.391-10.306a78.013,78.013,0,0,0-3.828,8.03,19.355,19.355,0,0,0-9.175-8.019.13.13,0,0,0-.138.218c1.777,1.436,6.376,5.617,7.811,11.412-1.273,3.149-2.748,7.012-4.4,11.7-.341-.725-.7-1.412-1.026-2.007a.476.476,0,0,0-.891.272c.147,1.616.279,3.829.393,6.149q-1.553,4.593-3.276,10.092c.1-.048.2-.1.314-.143s.2-.063.3-.094a3.369,3.369,0,0,1,.374-.107,7.86,7.86,0,0,1,1.821-.193,13.164,13.164,0,0,1,1.74-.367c2.133-8.2,5.418-20,7.8-24.654" transform="translate(-309.219 -541.037)" fill="#22150f"/>
    <path id="Path_1101" data-name="Path 1101" d="M354.572,603.13s.573-2.4.665,4.374.311,19.823-.786,26-1.049,5.737-2.189,6.9a10.038,10.038,0,0,0-3.563,6.423c-.706,4.015,3.309,4.749,3.309,4.749s-1.037-5.351,2.834-7.808,3.872-27.475,3.872-27.475-.775-20.005-2.547-24.447" transform="translate(-312.526 -541.037)" fill="#22150f"/>
    <path id="Path_1102" data-name="Path 1102" d="M464.022,600.271s-1.629-1.754-1.723,1.217-.132,20.752-.132,20.752.334,13.2,1.855,15.487a4.927,4.927,0,0,0,1.921,2.705c1.6,1.166,2.621,5.009,2.621,5.009s1.22,2.637-.636,3.907a11.282,11.282,0,0,1-2.553,1.448s-6.43-6.652-5.555-20.931,1.074-32.844,1.074-32.844.811-7.935,2.788-7.591Z" transform="translate(-348.263 -540.257)" fill="#22150f"/>
    <path id="Path_1103" data-name="Path 1103" d="M474.863,641.767s-2.178-.481-1.731,1.307,3.163,4.048,1.731,4.928c-1.081.664.351,2.38,1.117,3.18a1.744,1.744,0,0,0,1.38.552c.868-.067,2.419-.5,5.005-2.106a12.024,12.024,0,0,1,6.547-1.9,6.348,6.348,0,0,0,4.067-1.454,15.077,15.077,0,0,1,5.915-3.2c2.288-.452,5.647-3.723,6.392-2.681s5.25-3.375,3.387-4.12-2.606-1.4-2.631-2.432-5.212-1.489-6.7.149a14.429,14.429,0,0,1-6.156,3.425c-1.737.447-5.758-.6-7.694,1.043s-4.78,4.379-6.113,3.9A21.9,21.9,0,0,0,474.863,641.767Z" transform="translate(-352.551 -554.243)" fill="#a46b36"/>
    <path id="Path_1104" data-name="Path 1104" d="M329.675,641.767s2.178-.481,1.731,1.307-3.163,4.048-1.731,4.928c1.081.664-.351,2.38-1.117,3.18a1.745,1.745,0,0,1-1.38.552c-.868-.067-2.419-.5-5.005-2.106a12.025,12.025,0,0,0-6.548-1.9,6.346,6.346,0,0,1-4.066-1.454,15.075,15.075,0,0,0-5.916-3.2c-2.287-.452-5.647-3.723-6.391-2.681s-5.25-3.375-3.387-4.12,2.606-1.4,2.631-2.432,5.212-1.489,6.7.149a14.432,14.432,0,0,0,6.155,3.425c1.737.447,5.758-.6,7.694,1.043s4.78,4.379,6.113,3.9A21.9,21.9,0,0,1,329.675,641.767Z" transform="translate(-295.417 -554.243)" fill="#a46b36"/>
    <g id="Group_802" data-name="Group 802" transform="translate(59.809 36.828)">
      <path id="Path_1105" data-name="Path 1105" d="M388.243,573.955c.374.057,6.739.7,9.622.993a.174.174,0,0,1,.006.345l-9.628,1.417" transform="translate(-385.079 -572.111)" fill="none" stroke="#6d3c1a" stroke-miterlimit="10" stroke-width="1"/>
      <ellipse id="Ellipse_29" data-name="Ellipse 29" cx="2.978" cy="2.978" rx="2.978" ry="2.978" fill="#a46b36"/>
      <ellipse id="Ellipse_30" data-name="Ellipse 30" cx="0.424" cy="0.424" rx="0.424" ry="0.424" transform="translate(1.466 1.53)" fill="#331f13"/>
      <ellipse id="Ellipse_31" data-name="Ellipse 31" cx="0.424" cy="0.424" rx="0.424" ry="0.424" transform="translate(3.528 1.53)" fill="#331f13"/>
      <ellipse id="Ellipse_32" data-name="Ellipse 32" cx="0.424" cy="0.424" rx="0.424" ry="0.424" transform="translate(1.466 3.578)" fill="#331f13"/>
      <ellipse id="Ellipse_33" data-name="Ellipse 33" cx="0.424" cy="0.424" rx="0.424" ry="0.424" transform="translate(3.528 3.578)" fill="#331f13"/>
    </g>
  </g>
  <g id="Group_804" data-name="Group 804" transform="translate(72.251 0)">
    <path id="Path_1106" data-name="Path 1106" d="M368.144,411.483H409.15a12.909,12.909,0,0,1,12.871,12.871V465.36c0,.041,0,.083,0,.124a50.061,50.061,0,1,0-66.747,0c0-.041,0-.083,0-.124V424.354a12.909,12.909,0,0,1,12.871-12.871Z" transform="translate(-338.586 -369.198)" fill="#6a9725" fill-rule="evenodd"/>
    <path id="Path_1107" data-name="Path 1107" d="M343.391,418.3a50.082,50.082,0,0,1,92.492,0,6.713,6.713,0,0,1,1.726-1.488,50.079,50.079,0,0,0-95.944,0,6.714,6.714,0,0,1,1.726,1.488Z" transform="translate(-339.576 -370.163)" fill="#773629" fill-rule="evenodd"/>
    <path id="Path_1108" data-name="Path 1108" d="M343.391,415.3a50.082,50.082,0,0,1,92.492,0,6.723,6.723,0,0,1,1.726-1.487,50.079,50.079,0,0,0-95.944,0,6.714,6.714,0,0,1,1.726,1.488Z" transform="translate(-339.576 -369.198)" fill="#964835" fill-rule="evenodd"/>
    <path id="Path_1109" data-name="Path 1109" d="M371.689,379.978a17.535,17.535,0,0,0,5.972-5.434c.7-1.108,1.542-2.916,1.04-4.254a2.113,2.113,0,0,0-.144-.3,2.053,2.053,0,0,0-.192-.277c-.908-1.1-2.891-1.282-4.2-1.226a18.952,18.952,0,0,0-13.663,7.888c-.7,1.108-1.542,2.916-1.04,4.254a2.081,2.081,0,0,0,.144.3,2.049,2.049,0,0,0,.192.277c.908,1.1,2.891,1.283,4.2,1.227a17.532,17.532,0,0,0,7.691-2.454Z" transform="translate(-345.25 -366.1)" fill="#8dd2f7" fill-rule="evenodd"/>
    <path id="Path_1110" data-name="Path 1110" d="M370.565,378.853a17.532,17.532,0,0,1-7.691,2.454c-1.313.056-3.3-.123-4.2-1.227a2.052,2.052,0,0,1-.192-.277,2.084,2.084,0,0,1-.144-.3c-.5-1.338.335-3.145,1.04-4.254a18.952,18.952,0,0,1,13.663-7.888c1.313-.056,3.3.122,4.2,1.226a2.054,2.054,0,0,1,.192.277,2.118,2.118,0,0,1,.144.3c.5,1.338-.335,3.145-1.04,4.254a17.535,17.535,0,0,1-5.972,5.434Zm-14.132,2.156c2.109,3.614,8.96,3.571,15.32-.1s9.833-9.6,7.736-13.235-8.96-3.594-15.33.083-9.833,9.6-7.736,13.235l.01.018Z" transform="translate(-344.125 -364.974)" fill="#8c8b8b" fill-rule="evenodd"/>
    <path id="Path_1111" data-name="Path 1111" d="M372.048,382.188c-6.359,3.671-13.21,3.714-15.32.1l3.786,6.558c2.1,3.631,8.96,3.595,15.33-.083s9.833-9.6,7.736-13.234l-3.8-6.576c2.1,3.632-1.367,9.557-7.736,13.235Z" transform="translate(-344.421 -366.254)" fill="#bbbaba" fill-rule="evenodd"/>
    <path id="Path_1112" data-name="Path 1112" d="M366.143,386.34a33.021,33.021,0,0,0,7.641-3.173,16.207,16.207,0,0,0,8.18-10.436l-2.181-3.778c2.1,3.632-1.367,9.557-7.736,13.235s-13.21,3.714-15.32.1l2.636,4.565A22.924,22.924,0,0,0,366.143,386.34Z" transform="translate(-344.421 -366.254)" fill="#5d5d5b" fill-rule="evenodd"/>
    <path id="Path_1113" data-name="Path 1113" d="M428.184,375.529c-2.1,3.631,1.366,9.557,7.736,13.234s13.233,3.714,15.329.083l3.8-6.576c-2.1,3.631-8.96,3.595-15.33-.083s-9.833-9.6-7.736-13.235l-3.8,6.576Z" transform="translate(-367.204 -366.254)" fill="#bbbaba" fill-rule="evenodd"/>
    <path id="Path_1114" data-name="Path 1114" d="M433.78,367.673c-2.1,3.632,1.367,9.557,7.736,13.235s13.233,3.714,15.33.083-1.367-9.557-7.736-13.235-13.233-3.714-15.33-.083Zm16.615,13.634a18.949,18.949,0,0,1-13.663-7.888c-.7-1.108-1.542-2.916-1.04-4.254a2.1,2.1,0,0,1,.144-.3,2.054,2.054,0,0,1,.192-.277c.908-1.1,2.891-1.282,4.2-1.226a18.949,18.949,0,0,1,13.662,7.888c.706,1.108,1.542,2.916,1.04,4.254a2.02,2.02,0,0,1-.144.3,1.942,1.942,0,0,1-.192.277c-.907,1.1-2.891,1.283-4.2,1.227Z" transform="translate(-369.004 -364.974)" fill="#8c8b8b" fill-rule="evenodd"/>
    <path id="Path_1115" data-name="Path 1115" d="M437.856,374.544a18.949,18.949,0,0,0,13.663,7.888c1.313.056,3.3-.123,4.2-1.227a1.937,1.937,0,0,0,.192-.277,2.02,2.02,0,0,0,.144-.3c.5-1.338-.334-3.145-1.04-4.254a18.949,18.949,0,0,0-13.662-7.888c-1.313-.056-3.3.122-4.2,1.226a2.053,2.053,0,0,0-.192.277,2.11,2.11,0,0,0-.144.3c-.5,1.338.335,3.145,1.04,4.254Z" transform="translate(-370.128 -366.1)" fill="#8dd2f7" fill-rule="evenodd"/>
    <path id="Path_1116" data-name="Path 1116" d="M490.092,448.2c0-4.891.842-9.04,2.008-10.495a50.53,50.53,0,0,1-.276,20.586c-1.021-1.726-1.732-5.595-1.732-10.091Z" transform="translate(-387.311 -388.364)" fill="#57915e" fill-rule="evenodd"/>
    <path id="Path_1117" data-name="Path 1117" d="M491.388,436.967c-1.166,1.454-2.008,5.6-2.008,10.495,0,4.5.711,8.365,1.732,10.091q-.183.82-.393,1.63c-1.661-1.809-2.841-6.375-2.841-11.721,0-5.7,1.343-10.521,3.182-12.047q.176.771.328,1.552Z" transform="translate(-386.599 -387.628)" fill="#fff" fill-rule="evenodd"/>
    <path id="Path_1118" data-name="Path 1118" d="M490.229,434.6c-1.838,1.526-3.182,6.342-3.182,12.047,0,5.346,1.18,9.912,2.841,11.721q-.229.884-.489,1.756c-2.392-1.974-4.1-7.263-4.1-13.477,0-6.557,1.906-12.084,4.507-13.773q.229.857.427,1.727Z" transform="translate(-385.768 -386.809)" fill="#57915e" fill-rule="evenodd"/>
    <path id="Path_1119" data-name="Path 1119" d="M483.082,460.121V432.87h6.009c-2.6,1.689-4.507,7.216-4.507,13.773,0,6.214,1.712,11.5,4.1,13.477Z" transform="translate(-385.056 -386.809)" fill="#acbe00" fill-rule="evenodd"/>
    <path id="Path_1120" data-name="Path 1120" d="M446.633,386.34a33.021,33.021,0,0,1-7.641-3.173,16.207,16.207,0,0,1-8.18-10.436l2.181-3.778c-2.1,3.632,1.367,9.557,7.736,13.235s13.21,3.714,15.32.1l-2.636,4.565A22.924,22.924,0,0,1,446.633,386.34Z" transform="translate(-368.246 -366.254)" fill="#5d5d5b" fill-rule="evenodd"/>
  </g>
</svg>
